<svg xmlns="http://www.w3.org/2000/svg" width="1200" height="630" viewBox="0 0 1200 630">
  <defs>
    <linearGradient id="bg" x1="0" y1="0" x2="1" y2="1">
      <stop offset="0" stop-color="#0b1a3a"/>
      <stop offset="1" stop-color="#1d4ed8"/>
    </linearGradient>
    <linearGradient id="accent" x1="0" y1="0" x2="1" y2="0">
      <stop offset="0" stop-color="#ff5c00"/>
      <stop offset="1" stop-color="#ffd29a"/>
    </linearGradient>
  </defs>
  <rect width="1200" height="630" fill="url(#bg)"/>
  <circle cx="170" cy="120" r="220" fill="#60a5fa" opacity="0.18"/>
  <circle cx="1080" cy="540" r="260" fill="#a78bfa" opacity="0.14"/>

  <g transform="translate(90 90)">
    <rect x="0" y="0" width="86" height="86" rx="18" fill="#2563eb"/>
    <path d="M18 64h10V34H18v30zm16 0h10V22H34v42zm16 0h10V42H50v22zm16 0h10V52H66v12z" fill="#fff"/>
  </g>

  <g font-family="Inter,system-ui,-apple-system,Segoe UI,Roboto,Arial,sans-serif" fill="#fff">
    <text x="90" y="260" font-size="56" font-weight="900" letter-spacing="-1">
      AhrefsGroupBuy
    </text>
    <text x="90" y="325" font-size="34" font-weight="800" opacity="0.92">
      Stable shared Ahrefs access for SEO work
    </text>
    <text x="90" y="385" font-size="24" font-weight="600" opacity="0.75">
      Keyword research " Backlinks " Site audits " Competitor analysis
    </text>
  </g>

  <rect x="90" y="430" width="420" height="10" rx="5" fill="url(#accent)"/>
</svg>
